<?xml version="1.0" ?><!DOCTYPE svg  PUBLIC '-//W3C//DTD SVG 1.1//EN'  'http://www.w3.org/Graphics/SVG/1.1/DTD/svg11.dtd'><svg xmlns="http://www.w3.org/2000/svg" xmlns:xlink="http://www.w3.org/1999/xlink" version="1.1" id="Layer_1" width="512px" height="512px" viewBox="0 0 512 512" enable-background="new 0 0 512 512" xml:space="preserve"><path d="M289.658,498.5h-82.541c-6.903,0-12.5-5.597-12.5-12.5V307.927h-72.654c-6.903,0-12.5-5.596-12.5-12.5v-82.542  c0-6.903,5.597-12.5,12.5-12.5h72.654v-32.736c0-84.998,69.151-154.149,154.149-154.149h41.271c6.903,0,12.5,5.597,12.5,12.5v82.541  c0,6.903-5.597,12.5-12.5,12.5h-41.271c-25.7,0-46.608,20.908-46.608,46.608v32.736h72.656c6.903,0,12.5,5.597,12.5,12.5v82.542  c0,6.904-5.597,12.5-12.5,12.5h-72.656V486C302.158,492.903,296.562,498.5,289.658,498.5z M219.617,473.5h57.541V295.427  c0-6.903,5.597-12.5,12.5-12.5h72.656v-57.542h-72.656c-6.903,0-12.5-5.597-12.5-12.5v-45.236c0-39.485,32.123-71.608,71.608-71.608  h28.771V38.5h-28.771c-71.213,0-129.149,57.936-129.149,129.149v45.236c0,6.903-5.597,12.5-12.5,12.5h-72.654v57.542h72.654  c6.903,0,12.5,5.597,12.5,12.5V473.5z"/></svg>