<?xml version="1.0" ?><!DOCTYPE svg  PUBLIC '-//W3C//DTD SVG 1.1//EN'  'http://www.w3.org/Graphics/SVG/1.1/DTD/svg11.dtd'><svg xmlns="http://www.w3.org/2000/svg" xmlns:xlink="http://www.w3.org/1999/xlink" version="1.1" id="Layer_1" width="512px" height="512px" viewBox="0 0 512 512" enable-background="new 0 0 512 512" xml:space="preserve"><path d="M392.599,498.5H119.401C61.007,498.5,13.5,450.993,13.5,392.599V119.401C13.5,61.007,61.007,13.5,119.401,13.5h273.198  c58.394,0,105.901,47.507,105.901,105.901v273.198C498.5,450.993,450.993,498.5,392.599,498.5z M119.401,38.5  C74.792,38.5,38.5,74.792,38.5,119.401v273.198c0,44.609,36.292,80.901,80.901,80.901h273.198c44.609,0,80.901-36.292,80.901-80.901  V119.401c0-44.609-36.292-80.901-80.901-80.901H119.401z M256,414.206c-87.235,0-158.206-70.971-158.206-158.206  S168.765,97.794,256,97.794S414.206,168.765,414.206,256S343.235,414.206,256,414.206z M256,122.794  c-73.45,0-133.206,59.756-133.206,133.206S182.55,389.206,256,389.206S389.206,329.45,389.206,256S329.45,122.794,256,122.794z   M405.046,146.683c-21.803,0-39.541-17.738-39.541-39.541c0-21.803,17.738-39.541,39.541-39.541  c21.803,0,39.541,17.738,39.541,39.541C444.587,128.945,426.849,146.683,405.046,146.683z M405.046,92.602  c-8.018,0-14.541,6.523-14.541,14.541c0,8.018,6.523,14.541,14.541,14.541c8.018,0,14.541-6.523,14.541-14.541  C419.587,99.125,413.064,92.602,405.046,92.602z"/></svg>