<?xml version="1.0" ?><!DOCTYPE svg  PUBLIC '-//W3C//DTD SVG 1.1//EN'  'http://www.w3.org/Graphics/SVG/1.1/DTD/svg11.dtd'><svg xmlns="http://www.w3.org/2000/svg" xmlns:xlink="http://www.w3.org/1999/xlink" version="1.1" id="Layer_1" width="512px" height="512px" viewBox="0 0 512 512" enable-background="new 0 0 512 512" xml:space="preserve"><path d="M244.062,449.953c-3.298,0-6.482-1.306-8.838-3.661l-50.053-50.052l-42.89,42.89c-3.576,3.574-8.951,4.644-13.622,2.709  s-7.717-6.492-7.717-11.548l-0.003-103.46c0-4.048,1.96-7.845,5.26-10.19l81.637-58.012L100.23,300.711  c-4.626,1.807-9.881,0.708-13.392-2.803L17.161,228.23c-3.09-3.09-4.342-7.568-3.303-11.812c1.04-4.244,4.22-7.638,8.388-8.95  l460-144.844c5.059-1.593,10.568,0.18,13.751,4.419c3.183,4.24,3.345,10.026,0.403,14.438L254.463,444.387  c-2.077,3.116-5.441,5.137-9.169,5.505C244.883,449.933,244.471,449.953,244.062,449.953z M185.171,366.062  c3.199,0,6.398,1.22,8.839,3.661l48.11,48.109L455.928,97.121L49.411,225.125l49.326,49.326l194.54-76.079  c5.877-2.301,12.55,0.146,15.551,5.7c3,5.555,1.389,12.474-3.758,16.131L145.939,333.283l0.002,66.832l30.391-30.391  C178.772,367.283,181.972,366.062,185.171,366.062z"/></svg>